<?xml version="1.0" encoding="UTF-8"?>
<svg width="33px" height="27px" viewBox="0 0 33 27" version="1.1" xmlns="http://www.w3.org/2000/svg" xmlns:xlink="http://www.w3.org/1999/xlink">
    <title>logo</title>
    <desc>Created with Sketch.</desc>
    <defs>
        <polygon id="path-1" points="0 0 33 0 33 27 0 27"></polygon>
        <linearGradient x1="14.8591797%" y1="18.3005955%" x2="102.242188%" y2="76.5709468%" id="linearGradient-3">
            <stop stop-color="#9013FE" offset="0%"></stop>
            <stop stop-color="#6610F2" offset="99.5%"></stop>
        </linearGradient>
        <linearGradient x1="27.7655748%" y1="6.58202765%" x2="61.0063612%" y2="84.5230415%" id="linearGradient-4">
            <stop stop-color="#FFFFFF" offset="0%"></stop>
            <stop stop-color="#F1E5FC" offset="100%"></stop>
        </linearGradient>
    </defs>
    <g id="Page-1" stroke="none" stroke-width="1" fill="none" fill-rule="evenodd">
        <g id="logo">
            <mask id="mask-2" fill="white">
                <use xlink:href="#path-1"></use>
            </mask>
            <g id="Path"></g>
            <g id="Group" mask="url(#mask-2)">
                <path d="M3.64037695,3.52852941 C3.57811523,1.69279412 4.97114063,0 6.85407422,0 L26.1483105,0 C28.0312441,0 29.4242695,1.69279412 29.3620078,3.52852941 C29.3021953,5.29193382 29.3798613,7.57621324 29.9397656,9.43875 C30.5014746,11.3070441 31.4486777,12.4879632 33,12.6397059 L33,14.3602941 C31.4486777,14.5120368 30.5014746,15.6929559 29.9397656,17.56125 C29.3798613,19.4237868 29.3021953,21.7080662 29.3620078,23.4715368 C29.4242695,25.3072059 28.0312441,27 26.1483105,27 L6.85407422,27 C4.97114063,27 3.57811523,25.3072059 3.64044141,23.4715368 C3.70018945,21.7080662 3.62252344,19.4237868 3.06255469,17.56125 C2.50091016,15.6929559 1.55138672,14.5120368 0,14.3602941 L0,12.6397059 C1.55132227,12.4879632 2.50091016,11.3070441 3.06255469,9.43875 C3.62252344,7.57621324 3.70018945,5.29193382 3.64037695,3.52852941 Z" id="Path" fill="url(#linearGradient-3)"></path>
                <path d="M17.215623,20.6773015 C20.2640625,20.6773015 22.101041,19.1447868 22.101041,16.6170441 C22.101041,14.7063309 20.7903223,13.3230441 18.8440957,13.1040662 L18.8440957,13.0244559 C20.2739883,12.785625 21.3960527,11.4222574 21.3960527,9.89966912 C21.3960527,7.73020588 19.727877,6.31700735 17.1858457,6.31700735 L11.4662754,6.31700735 L11.4662754,20.6773015 L17.215623,20.6773015 Z M13.6905527,8.13818382 L16.6496602,8.13818382 C18.2582813,8.13818382 19.1717754,8.87459559 19.1717754,10.2081176 C19.1717754,11.6312426 18.1093301,12.4273456 16.1829551,12.4273456 L13.6905527,12.4273456 L13.6905527,8.13818382 L13.6905527,8.13818382 Z M13.6905527,18.8561912 L13.6905527,14.1291397 L16.6297441,14.1291397 C18.7348477,14.1291397 19.8271348,14.9252426 19.8271348,16.4777426 C19.8271348,18.0301765 18.7646895,18.8561912 16.7588438,18.8561912 L13.6905527,18.8561912 L13.6905527,18.8561912 Z" id="Shape" fill="url(#linearGradient-4)" fill-rule="nonzero"></path>
                <path d="M18.7796426,13.1634265 L18.7796426,12.9682059 L18.8337832,12.9591397 C20.2317715,12.7256029 21.3315996,11.3904926 21.3315996,9.89966912 C21.3315996,8.83383088 20.9225156,7.957125 20.2030898,7.34578676 C19.4825039,6.73338971 18.4457109,6.38318382 17.1858457,6.38318382 L11.5307285,6.38318382 L11.5307285,20.611125 L17.215623,20.611125 C18.7301426,20.611125 19.9354805,20.2304118 20.7609316,19.5436324 C21.5846426,18.8583088 22.0365879,17.8629485 22.0365879,16.6170441 C22.0365879,14.7439191 20.7544863,13.3855809 18.8370703,13.1698456 L18.7796426,13.1634265 Z M11.4662754,20.6773015 L11.4662754,6.31700735 L17.1858457,6.31700735 C19.727877,6.31700735 21.3960527,7.73020588 21.3960527,9.89966912 C21.3960527,11.4222574 20.2739883,12.785625 18.8440957,13.0244559 L18.8440957,13.1040662 C20.7903223,13.3230441 22.101041,14.7063309 22.101041,16.6170441 C22.101041,19.1447868 20.2640625,20.6773015 17.215623,20.6773015 L11.4662754,20.6773015 Z M13.6260996,8.07200735 L16.6496602,8.07200735 C17.4623496,8.07200735 18.1091367,8.25789706 18.5540566,8.62133824 C19.0012324,8.98656618 19.2362285,9.52444853 19.2362285,10.2081176 C19.2362285,10.9388382 18.9623027,11.5144412 18.4375898,11.9050147 C17.9159063,12.2932721 17.1532969,12.4935221 16.1829551,12.4935221 L13.6260996,12.4935221 L13.6260996,8.07200735 Z M13.6260996,18.9223676 L13.6260996,14.0629632 L16.6297441,14.0629632 C17.6884512,14.0629632 18.5034609,14.2628162 19.0553086,14.6673529 C19.610959,15.0747353 19.8915879,15.6834265 19.8915879,16.4777426 C19.8915879,17.2711324 19.6190801,17.8868382 19.0840547,18.3018971 C18.5519941,18.7146397 17.7688242,18.9223676 16.7588438,18.9223676 L13.6260996,18.9223676 L13.6260996,18.9223676 Z M13.6905527,8.13818382 L13.6905527,12.4273456 L16.1829551,12.4273456 C18.1093301,12.4273456 19.1717754,11.6312426 19.1717754,10.2081176 C19.1717754,8.87459559 18.2582813,8.13818382 16.6496602,8.13818382 L13.6905527,8.13818382 Z M13.6905527,18.8561912 L16.7588438,18.8561912 C18.7646895,18.8561912 19.8271348,18.0301765 19.8271348,16.4777426 C19.8271348,14.9252426 18.7348477,14.1291397 16.6297441,14.1291397 L13.6905527,14.1291397 L13.6905527,18.8561912 L13.6905527,18.8561912 Z" id="Shape" fill="#FFFFFF"></path>
            </g>
        </g>
    </g>
</svg>