<?xml version="1.0" encoding="UTF-8"?>
<svg width="34px" height="34px" viewBox="0 0 34 34" version="1.1" xmlns="http://www.w3.org/2000/svg" xmlns:xlink="http://www.w3.org/1999/xlink">
    <!-- Generator: Sketch 58 (84663) - https://sketch.com -->
    <title>Artboard</title>
    <desc>Created with Sketch.</desc>
    <g id="Artboard" stroke="none" stroke-width="1" fill="none" fill-rule="evenodd">
        <g id="logo" transform="translate(2.000000, 2.000000)" fill-rule="nonzero">
            <path d="M30,25 C30,27.75 27.75,30 25,30 L5,30 C2.25,30 0,27.75 0,25 L0,5 C0,2.25 2.25,0 5,0 L25,0 C27.75,0 30,2.25 30,5 L30,25 Z" id="Path" fill="#563D7C"></path>
            <path d="M8.15196078,6.51960784 L16.6568627,6.51960784 C18.2254902,6.51960784 19.4852941,6.87745098 20.4313725,7.59803922 C21.377451,8.31862745 21.8529412,9.40196078 21.8529412,10.8578431 C21.8529412,11.7401961 21.6372549,12.495098 21.2058824,13.122549 C20.7745098,13.75 20.1568627,14.2401961 19.3529412,14.5833333 L19.3529412,14.6323529 C20.4313725,14.8627451 21.25,15.372549 21.8039216,16.1617647 C22.3578431,16.9558824 22.6372549,17.9460784 22.6372549,19.1421569 C22.6372549,19.8284314 22.5147059,20.4705882 22.2696078,21.0637255 C22.0245098,21.6617647 21.6421569,22.1764706 21.1176471,22.6078431 C20.5931373,23.0392157 19.9264706,23.3823529 19.1078431,23.6372549 C18.2892157,23.8921569 17.3186275,24.0196078 16.1911765,24.0196078 L8.15196078,24.0196078 L8.15196078,6.51960784 Z M11.2156863,13.8480392 L16.2156863,13.8480392 C16.9509804,13.8480392 17.5637255,13.6421569 18.0539216,13.2205882 C18.5441176,12.7990196 18.7892157,12.2009804 18.7892157,11.4166667 C18.7892157,10.5343137 18.5686275,9.91176471 18.127451,9.55392157 C17.6862745,9.19607843 17.0490196,9.01470588 16.2156863,9.01470588 L11.2156863,9.01470588 L11.2156863,13.8480392 Z M11.2156863,21.5196078 L16.6323529,21.5196078 C17.5637255,21.5196078 18.2892157,21.2794118 18.7990196,20.7941176 C19.3137255,20.3137255 19.5735294,19.627451 19.5735294,18.745098 C19.5735294,17.877451 19.3186275,17.2156863 18.7990196,16.745098 C18.2794118,16.2745098 17.5637255,16.0490196 16.6323529,16.0490196 L11.2156863,16.0490196 L11.2156863,21.5196078 Z" id="Shape" fill="#FFFFFF"></path>
        </g>
    </g>
</svg>
